<svg xmlns="http://www.w3.org/2000/svg" xmlns:xlink="http://www.w3.org/1999/xlink" viewBox="0 0 1920 1080">
  <defs>
    <linearGradient id="linear-gradient" x1="312.15" y1="312.15" x2="0" gradientUnits="userSpaceOnUse">
      <stop offset="0" stop-color="#1ded27"/>
      <stop offset="1" stop-color="#0e6c18"/>
    </linearGradient>
    <linearGradient id="linear-gradient-2" x1="455.71" y1="455.71" x2="312.15" y2="312.15" xlink:href="#linear-gradient"/>
    <linearGradient id="linear-gradient-3" x1="624.29" y1="312.15" x2="312.15" y2="0" xlink:href="#linear-gradient"/>
    <linearGradient id="linear-gradient-4" x1="767.85" y1="455.71" x2="624.29" y2="312.15" xlink:href="#linear-gradient"/>
    <linearGradient id="linear-gradient-5" x1="708.14" y1="190.29" x2="396" y2="-121.85" gradientTransform="translate(-396 434)" xlink:href="#linear-gradient"/>
    <linearGradient id="linear-gradient-6" x1="851.71" y1="333.85" x2="708.14" y2="190.29" gradientTransform="translate(-396 434)" xlink:href="#linear-gradient"/>
    <linearGradient id="linear-gradient-7" x1="1319.38" y1="489.38" x2="1007.24" y2="177.24" gradientTransform="translate(-396 434)" xlink:href="#linear-gradient"/>
    <linearGradient id="linear-gradient-8" x1="1462.95" y1="632.95" x2="1319.38" y2="489.38" gradientTransform="translate(-396 434)" xlink:href="#linear-gradient"/>
    <linearGradient id="linear-gradient-9" x1="708.14" y1="502.44" x2="396" y2="190.29" gradientTransform="translate(-396 434)" xlink:href="#linear-gradient"/>
    <linearGradient id="linear-gradient-10" x1="851.71" y1="646" x2="708.14" y2="502.44" gradientTransform="translate(-396 434)" xlink:href="#linear-gradient"/>
    <linearGradient id="linear-gradient-11" x1="226.17" y1="684.29" x2="-85.97" y2="372.15" gradientTransform="translate(577.16 480.85) rotate(-90)" xlink:href="#linear-gradient"/>
    <linearGradient id="linear-gradient-12" x1="369.74" y1="827.86" x2="226.17" y2="684.29" gradientTransform="translate(122.01 480.3) rotate(-90)" xlink:href="#linear-gradient"/>
  </defs>
  <g id="Layer_1" data-name="Layer 1">
    <rect width="312.15" height="312.15" style="fill:url(#linear-gradient)"/>
    <rect x="312.15" y="312.15" width="143.56" height="143.56" style="fill:url(#linear-gradient-2)"/>
    <rect x="312.15" width="312.15" height="312.15" style="fill:url(#linear-gradient-3)"/>
    <rect x="624.29" y="312.15" width="143.56" height="143.56" style="fill:url(#linear-gradient-4)"/>
    <rect y="312.15" width="312.15" height="312.15" style="fill:url(#linear-gradient-5)"/>
    <rect x="312.15" y="624.29" width="143.56" height="143.56" style="fill:url(#linear-gradient-6)"/>
    <rect x="611.24" y="611.24" width="312.15" height="312.15" style="fill:url(#linear-gradient-7)"/>
    <rect x="923.38" y="923.38" width="143.56" height="143.56" style="fill:url(#linear-gradient-8)"/>
    <rect y="624.29" width="312.15" height="312.15" style="fill:url(#linear-gradient-9)"/>
    <rect x="312.15" y="936.44" width="143.56" height="143.56" style="fill:url(#linear-gradient-10)"/>
    <rect x="949.31" y="254.68" width="312.15" height="312.15" transform="translate(691.96 1515.13) rotate(-89.86)" style="fill:url(#linear-gradient-11)"/>
    <rect x="806.3" y="110.56" width="143.56" height="143.56" transform="translate(693.61 1059.98) rotate(-89.86)" style="fill:url(#linear-gradient-12)"/>
  </g>
</svg>